<?xml version="1.0" encoding="UTF-8" standalone="no"?>
<!DOCTYPE svg PUBLIC "-//W3C//DTD SVG 1.1//EN" "http://www.w3.org/Graphics/SVG/1.1/DTD/svg11.dtd">
<svg width="100%" height="100%" viewBox="0 0 247 286" version="1.1" xmlns="http://www.w3.org/2000/svg" xmlns:xlink="http://www.w3.org/1999/xlink" xml:space="preserve" xmlns:serif="http://www.serif.com/" style="fill-rule:evenodd;clip-rule:evenodd;">
    <g transform="matrix(1,0,0,1,-61,-80)">
        <g transform="matrix(0.754781,0,0,0.754781,19.3018,14.8133)">
            <path id="rect3667" d="M187.18,250.387C128.367,222.293 41.853,255.804 62.322,331.399C82.269,405.068 168.413,388.901 198.201,344.058C185.774,429.083 163.949,442.32 150.867,460.778L289.751,460.778C275.679,441.039 250.127,429.083 235.143,342.893C265.159,387.66 355.396,403.18 375.055,330.576C394.393,259.155 307.221,218.481 249.254,250.813C304.839,213.488 324.801,90.9 219.523,90.9C113.205,90.9 130.944,215.884 187.18,250.387Z" style="fill-rule:nonzero;stroke:black;stroke-width:1.81px;"/>
        </g>
    </g>
</svg>
