<?xml version="1.0" encoding="UTF-8" standalone="no"?>
<!DOCTYPE svg PUBLIC "-//W3C//DTD SVG 1.1//EN" "http://www.w3.org/Graphics/SVG/1.1/DTD/svg11.dtd">
<svg width="100%" height="100%" viewBox="0 0 263 281" version="1.1" xmlns="http://www.w3.org/2000/svg" xmlns:xlink="http://www.w3.org/1999/xlink" xml:space="preserve" xmlns:serif="http://www.serif.com/" style="fill-rule:evenodd;clip-rule:evenodd;stroke-linejoin:round;stroke-miterlimit:2;">
    <g transform="matrix(1,0,0,1,-53,-419)">
        <g transform="matrix(0.754781,0,0,0.754781,19.3018,14.8133)">
            <path id="path30" d="M216.5,906.612C216.157,905.994 214.682,901.524 213.222,896.679C203.968,865.973 186.789,834.88 158.021,796.767C147.213,782.448 137.04,769.768 109.532,736.33C77.681,697.612 68.557,685.209 59.344,668.102C53.904,657.999 48.266,642.628 46.41,632.839C44.556,623.056 44.526,607.072 46.346,598.75C53.749,564.895 83.821,539.355 119.779,536.381C160.972,532.974 196.011,553.783 214.422,592.588L218.533,601.253L221.628,594.407C226.225,584.236 230.653,577.357 238.126,568.773C257.154,546.92 279.8,536.215 307.081,536.177C319.301,536.16 326.303,537.175 336.716,540.47C352.29,545.398 364.014,553.075 374.455,565.183C401.665,596.736 398.443,639.723 364.923,692.37C357.103,704.651 342.995,722.822 323.593,745.602C301.249,771.833 290.332,785.165 279.155,799.867C252.364,835.107 234.345,867.127 224.434,897.11C222.922,901.684 221.338,905.946 220.914,906.581C219.929,908.057 217.312,908.075 216.5,906.612Z" style="fill:rgb(255,0,0);fill-rule:nonzero;"/>
        </g>
    </g>
</svg>
